<svg width="748" height="283" viewBox="0 0 748 283" fill="none" xmlns="http://www.w3.org/2000/svg">
<g opacity="0.8">
<g opacity="0.45" clip-path="url(#clip0_180_137)">
<path d="M51.7576 238.198C51.4865 237.988 51.1519 237.82 50.78 237.721C50.3618 237.61 49.9409 237.599 49.5425 237.673L49.5611 237.67L44.8733 238.439C44.8845 238.405 44.9089 238.381 44.9179 238.347C45.171 237.35 44.5762 236.335 43.581 236.07C43.5309 236.057 43.4811 236.046 43.4315 236.037L43.4383 236.038L40.6961 235.31L37.5143 233.382C37.4732 233.356 37.4238 233.334 37.3702 233.32L37.3673 233.319L35.795 232.901L35.9408 232.353C36.0205 232.053 35.8416 231.744 35.5415 231.665L32.7268 230.917C32.4267 230.837 32.1185 231.016 32.0388 231.316L29.6885 240.166C29.6088 240.466 29.7877 240.774 30.0878 240.854L32.9025 241.601C33.2026 241.681 33.5108 241.502 33.5905 241.202L33.784 240.473C35.0471 241.029 36.1383 241.674 37.1357 242.424L37.0381 242.357C37.7916 242.879 38.7081 243.309 39.7113 243.576C39.7164 243.577 39.7214 243.578 39.7265 243.58L39.7258 243.579C39.7294 243.58 39.7338 243.582 39.7381 243.583C40.9008 243.891 42.0705 243.955 43.1932 243.803L43.1311 243.809C44.1386 243.648 45.0155 243.428 45.8673 243.14L45.7981 243.161C46.0833 243.075 46.3671 242.988 46.6522 242.908C48.0221 242.521 49.1366 242.158 50.1596 241.766C50.6587 241.579 51.1023 241.381 51.5338 241.159L51.5212 241.165C51.8497 241.018 52.1389 240.8 52.3674 240.524L52.3769 240.512C52.4145 240.46 52.4444 240.398 52.4629 240.328C52.4738 240.287 52.4801 240.246 52.4816 240.205L52.4813 240.209C52.5713 239.444 52.2933 238.711 51.7693 238.206L51.7592 238.197L51.7576 238.198ZM32.6474 240.37L30.92 239.911L32.9817 232.149L34.7091 232.608L32.6474 240.37ZM50.9608 240.19C50.5909 240.379 50.197 240.553 49.7937 240.704L49.7534 240.718C48.7659 241.097 47.6831 241.449 46.344 241.827C46.0523 241.909 45.7627 241.997 45.4709 242.085C44.7415 242.336 43.9237 242.543 43.0895 242.683L42.9851 242.697C42.0588 242.819 41.0361 242.76 40.0199 242.49C39.1479 242.258 38.349 241.888 37.6399 241.411L37.6893 241.442C36.6869 240.672 35.472 239.964 34.1561 239.411L34.0738 239.379L35.5053 233.989L37 234.386L40.1818 236.314C40.2229 236.34 40.2723 236.362 40.3259 236.376L40.3288 236.377L43.1486 237.126C43.7886 237.296 43.9159 237.734 43.8297 238.059C43.7434 238.383 43.4155 238.701 42.7755 238.531L37.8398 237.22C37.5397 237.14 37.2315 237.319 37.1518 237.619C37.0721 237.919 37.2509 238.227 37.551 238.307L43.1913 239.805L43.1942 239.806C43.2739 239.827 43.3539 239.83 43.4298 239.816L43.4265 239.816L49.7507 238.78C49.9849 238.74 50.244 238.749 50.5013 238.817C50.6934 238.868 50.8699 238.948 51.0272 239.051L51.0159 239.045C51.2492 239.285 51.3766 239.609 51.3596 239.948L51.3589 239.956C51.2298 240.045 51.0993 240.121 50.9642 240.189L50.9598 240.191L50.9608 240.19ZM43.1711 233.62C43.2417 233.757 43.3669 233.864 43.5271 233.907C43.6873 233.949 43.8491 233.918 43.9777 233.835L43.9786 233.834L49.579 230.187C50.5572 229.666 51.331 228.774 51.6765 227.643L51.6784 227.636C51.6807 227.627 51.6834 227.617 51.6861 227.607C51.9426 226.641 51.7807 225.664 51.3123 224.865C50.8261 224.055 50.0359 223.424 49.0487 223.162C48.0817 222.905 47.103 223.049 46.2883 223.49L46.2909 223.489C45.8132 222.801 45.0926 222.268 44.2126 222.034C43.8994 221.951 43.5857 221.911 43.2764 221.91L43.3026 221.91C41.9353 221.934 40.6939 222.655 40.0081 223.805L39.9945 223.83C39.8563 224.076 39.7369 224.368 39.6539 224.68C39.3738 225.735 39.5701 226.804 40.1112 227.66L40.1128 227.662L43.1711 233.62ZM40.9699 224.391C41.4627 223.561 42.3388 223.053 43.284 223.035L43.304 223.036C43.4979 223.033 43.7137 223.06 43.9282 223.116C44.6814 223.343 45.2707 223.856 45.6113 224.502L45.6122 224.504C45.6846 224.629 45.804 224.726 45.954 224.766C46.1041 224.806 46.2565 224.781 46.3806 224.708C47.0759 224.258 47.9374 224.077 48.7978 224.258L48.805 224.26L48.8231 224.265C50.156 224.629 50.9466 225.999 50.5918 227.335C50.5914 227.337 50.5912 227.338 50.5909 227.339C50.3198 228.184 49.7348 228.841 49.0023 229.221L48.9995 229.223L48.9746 229.238L43.8853 232.552L41.0977 227.124C40.6888 226.51 40.5362 225.735 40.7394 224.97C40.7956 224.758 40.8756 224.559 40.9765 224.375L40.9683 224.391L40.9699 224.391Z" fill="#E8E7E7"/>
</g>
<g opacity="0.45">
<path d="M336.98 235.401C336.494 235.227 335.936 235.14 335.358 235.171C334.707 235.206 334.099 235.386 333.562 235.677L333.588 235.665L327.228 238.943C327.228 238.889 327.252 238.843 327.249 238.79C327.149 237.244 325.825 236.066 324.276 236.149C324.198 236.153 324.122 236.161 324.047 236.17L324.057 236.169L319.79 236.398L314.336 235.114C314.264 235.095 314.184 235.087 314.1 235.091L314.096 235.091L311.649 235.223L311.603 234.369C311.578 233.902 311.179 233.543 310.712 233.569L306.332 233.804C305.865 233.829 305.506 234.229 305.531 234.696L306.272 248.466C306.297 248.933 306.697 249.292 307.164 249.267L311.544 249.031C312.011 249.006 312.369 248.607 312.344 248.14L312.283 247.006C314.351 247.216 316.214 247.634 317.991 248.245L317.82 248.193C319.142 248.593 320.655 248.783 322.216 248.699C322.224 248.699 322.232 248.698 322.24 248.698L322.239 248.698C322.244 248.698 322.251 248.697 322.258 248.697C324.067 248.599 325.773 248.147 327.311 247.409L327.225 247.446C328.593 246.747 329.748 246.026 330.835 245.217L330.745 245.28C331.114 245.023 331.48 244.767 331.851 244.52C333.635 243.33 335.063 242.293 336.347 241.255C336.975 240.755 337.519 240.266 338.034 239.747L338.019 239.763C338.421 239.399 338.734 238.953 338.933 238.451L338.941 238.429C338.971 238.338 338.985 238.234 338.979 238.126C338.976 238.062 338.966 238 338.949 237.941L338.95 237.946C338.724 236.808 337.986 235.887 337 235.408L336.982 235.4L336.98 235.401ZM310.607 247.386L307.919 247.53L307.269 235.451L309.957 235.306L310.607 247.386ZM336.763 238.625C336.321 239.068 335.837 239.5 335.329 239.904L335.278 239.943C334.039 240.944 332.651 241.951 330.908 243.115C330.528 243.367 330.154 243.628 329.777 243.889C328.848 244.588 327.772 245.264 326.642 245.852L326.499 245.92C325.228 246.524 323.736 246.915 322.154 247C320.797 247.073 319.481 246.914 318.243 246.56L318.328 246.58C316.535 245.944 314.465 245.493 312.323 245.312L312.19 245.304L311.739 236.916L314.065 236.791L319.519 238.076C319.59 238.094 319.671 238.103 319.754 238.098L319.759 238.098L324.147 237.862C325.143 237.808 325.529 238.377 325.556 238.882C325.583 239.387 325.26 239.994 324.264 240.048L316.584 240.461C316.117 240.486 315.758 240.886 315.783 241.353C315.808 241.82 316.208 242.178 316.675 242.153L325.452 241.681L325.456 241.681C325.58 241.674 325.696 241.641 325.798 241.585L325.794 241.588L334.374 237.167C334.691 237 335.067 236.893 335.467 236.871C335.766 236.855 336.056 236.888 336.33 236.963L336.31 236.958C336.756 237.195 337.089 237.6 337.222 238.093L337.225 238.105C337.081 238.293 336.929 238.462 336.767 238.622L336.762 238.626L336.763 238.625ZM322.551 232.828C322.716 232.992 322.945 233.087 323.194 233.073C323.444 233.06 323.661 232.941 323.807 232.761L323.808 232.76L330.139 224.935C331.299 223.733 331.993 222.096 331.963 220.315L331.962 220.304C331.962 220.29 331.961 220.274 331.96 220.259C331.879 218.756 331.194 217.431 330.152 216.504C329.079 215.568 327.654 215.032 326.117 215.115C324.613 215.196 323.277 215.856 322.315 216.866L322.318 216.863C321.314 216.099 320.034 215.67 318.665 215.744C318.177 215.77 317.709 215.859 317.266 216L317.303 215.989C315.355 216.658 313.911 218.267 313.463 220.233L313.455 220.276C313.371 220.692 313.335 221.166 313.361 221.652C313.45 223.293 314.227 224.734 315.4 225.709L315.403 225.712L322.551 232.828ZM315.113 220.627C315.434 219.209 316.453 218.074 317.799 217.61L317.828 217.601C318.105 217.507 318.426 217.445 318.76 217.427C319.944 217.402 321.026 217.863 321.814 218.63L321.817 218.633C321.979 218.779 322.195 218.862 322.428 218.849C322.662 218.837 322.868 218.731 323.013 218.569C323.8 217.601 324.95 216.941 326.267 216.802L326.278 216.802L326.307 216.8C328.385 216.702 330.154 218.299 330.266 220.378C330.266 220.38 330.266 220.381 330.267 220.384C330.271 221.721 329.737 222.934 328.864 223.818L328.861 223.821L328.832 223.855L323.079 230.966L316.565 224.483C315.694 223.793 315.115 222.753 315.051 221.563C315.033 221.234 315.056 220.911 315.115 220.6L315.111 220.628L315.113 220.627Z" fill="#E8E7E7"/>
</g>
<g opacity="0.45" clip-path="url(#clip1_180_137)">
<path d="M738.29 33.9907C737.95 33.7214 737.529 33.5025 737.059 33.3718C736.531 33.2248 735.998 33.2046 735.492 33.2927L735.515 33.2894L729.564 34.1928C729.579 34.1506 729.61 34.1198 729.622 34.0768C729.958 32.8178 729.22 31.5223 727.963 31.1724C727.899 31.1548 727.836 31.1403 727.774 31.1278L727.782 31.1291L724.319 30.1652L720.316 27.6751C720.265 27.641 720.203 27.6128 720.135 27.594L720.131 27.5929L718.145 27.0403L718.338 26.3472C718.444 25.9682 718.222 25.575 717.843 25.4695L714.288 24.48C713.909 24.3745 713.516 24.5965 713.41 24.9755L710.299 36.1521C710.194 36.5312 710.416 36.9244 710.795 37.0299L714.35 38.0193C714.729 38.1248 715.122 37.9028 715.228 37.5238L715.484 36.6037C717.076 37.327 718.449 38.1609 719.701 39.126L719.578 39.0386C720.525 39.7125 721.68 40.2706 722.947 40.6233C722.953 40.6251 722.96 40.6268 722.966 40.6286L722.965 40.6284C722.97 40.6296 722.975 40.6312 722.981 40.6327C724.449 41.0414 725.93 41.139 727.355 40.9644L727.276 40.971C728.555 40.7815 729.67 40.5166 730.753 40.1642L730.665 40.19C731.028 40.0847 731.389 39.979 731.751 39.8816C733.493 39.4125 734.91 38.9695 736.212 38.4875C736.847 38.2579 737.412 38.0137 737.962 37.7387L737.946 37.747C738.365 37.5656 738.734 37.2936 739.028 36.9472L739.04 36.9319C739.089 36.8674 739.127 36.7885 739.152 36.7006C739.166 36.6484 739.175 36.5965 739.177 36.5449L739.177 36.5498C739.303 35.5815 738.961 34.649 738.305 34.0017L738.292 33.9903L738.29 33.9907ZM714.045 36.4559L711.863 35.8486L714.592 26.0444L716.774 26.6516L714.045 36.4559ZM737.251 36.5029C736.779 36.7366 736.278 36.9512 735.764 37.1368L735.713 37.1541C734.456 37.619 733.079 38.0485 731.377 38.5079C731.006 38.6069 730.638 38.7145 730.267 38.8214C729.339 39.1284 728.299 39.3787 727.24 39.5436L727.108 39.559C725.933 39.6994 724.638 39.6093 723.354 39.252C722.253 38.9455 721.246 38.4651 720.355 37.8501L720.417 37.8891C719.159 36.8996 717.63 35.9839 715.971 35.2637L715.867 35.2219L717.762 28.4142L719.65 28.9396L723.652 31.4297C723.704 31.4638 723.766 31.492 723.834 31.5108L723.838 31.5118L727.399 32.5031C728.207 32.7281 728.362 33.2851 728.248 33.6952C728.134 34.1054 727.713 34.5023 726.905 34.2773L720.671 32.5423C720.292 32.4368 719.899 32.6588 719.794 33.0378C719.688 33.4168 719.91 33.8101 720.289 33.9156L727.413 35.8983L727.416 35.8993C727.517 35.9273 727.618 35.9319 727.715 35.9153L727.711 35.9161L735.739 34.6981C736.036 34.6506 736.364 34.666 736.689 34.7565C736.932 34.824 737.154 34.9283 737.352 35.0613L737.338 35.0524C737.63 35.3606 737.786 35.773 737.76 36.2016L737.759 36.2122C737.594 36.3231 737.427 36.4179 737.255 36.5012L737.25 36.5035L737.251 36.5029ZM727.48 28.0611C727.567 28.2363 727.725 28.3737 727.927 28.43C728.129 28.4864 728.335 28.4498 728.499 28.3456L728.5 28.3449L735.651 23.8089C736.898 23.1627 737.892 22.0445 738.346 20.6164L738.349 20.6072C738.352 20.5962 738.355 20.5834 738.359 20.5706C738.698 19.3511 738.508 18.1105 737.927 17.0914C737.323 16.0573 736.331 15.2466 735.084 14.8996C733.863 14.5596 732.621 14.7269 731.582 15.2732L731.585 15.2722C730.99 14.3934 730.085 13.7075 728.974 13.3981C728.578 13.288 728.181 13.2328 727.79 13.2263L727.823 13.2277C726.09 13.2367 724.506 14.1315 723.62 15.5786L723.603 15.6102C723.424 15.9194 723.268 16.2875 723.158 16.682C722.787 18.0141 723.02 19.3721 723.693 20.4639L723.695 20.4674L727.48 28.0611ZM724.83 16.3355C725.467 15.2916 726.584 14.6606 727.782 14.6527L727.808 14.6538C728.053 14.6531 728.326 14.6897 728.597 14.7651C729.548 15.0633 730.287 15.7217 730.709 16.5454L730.71 16.5487C730.8 16.7078 730.95 16.8324 731.139 16.8851C731.329 16.9379 731.522 16.9089 731.68 16.8188C732.568 16.259 733.662 16.0417 734.75 16.2852L734.759 16.2877L734.782 16.2941C736.465 16.7744 737.446 18.5232 736.977 20.2105C736.976 20.2123 736.976 20.2133 736.975 20.2151C736.619 21.2819 735.868 22.1057 734.934 22.5757L734.931 22.5777L734.899 22.5965L728.401 26.7193L724.951 19.8C724.442 19.0162 724.26 18.0315 724.529 17.0656C724.604 16.7983 724.708 16.5472 724.839 16.3152L724.828 16.3359L724.83 16.3355Z" fill="#E8E7E7"/>
</g>
<g opacity="0.45" clip-path="url(#clip2_180_137)">
<path d="M208.904 213.621L237.503 202.55L247.851 207.123L237.743 181.011C236.685 178.275 233.58 176.904 230.844 177.963L199.759 189.996C197.023 191.055 195.652 194.159 196.71 196.895L202.005 210.572C203.064 213.308 206.168 214.68 208.904 213.621Z" fill="#454242"/>
<path d="M222.598 198.026L218.121 199.759L218.262 202.707L215.526 203.766L215.314 189.55L217.676 188.636L227.09 199.289L224.354 200.348L222.598 198.026ZM217.973 197.528L221.081 196.325L217.76 192.178L217.973 197.528Z" fill="#161313"/>
<path d="M224.067 186.305L195.468 197.376L190.895 207.724L179.825 179.126C178.766 176.39 180.138 173.286 182.873 172.227L213.959 160.194C216.694 159.135 219.799 160.506 220.858 163.242L227.115 179.406C228.174 182.142 226.802 185.247 224.067 186.305Z" fill="#949292"/>
<path d="M209.418 176.535C209.899 177.778 210.036 178.869 210 179.884C209.963 180.899 209.755 181.837 209.201 182.623L211.941 183.422L210.902 185.539L207.348 184.484C207.1 184.581 206.775 184.849 206.402 184.994C205.656 185.283 204.861 185.447 204.019 185.487C203.301 185.479 202.487 185.222 201.797 184.918C201.107 184.613 200.445 184.011 199.908 183.361C199.37 182.712 198.909 181.889 198.524 180.895L198.331 180.397C197.946 179.402 197.734 178.484 197.694 177.642C197.654 176.799 197.738 175.909 198.043 175.219C198.347 174.529 198.652 173.839 199.302 173.302C199.828 172.812 200.525 172.399 201.396 172.062C202.142 171.773 202.936 171.609 203.778 171.569C204.496 171.577 205.311 171.834 206.001 172.138C206.69 172.443 207.352 173.045 207.89 173.695C208.427 174.345 208.889 175.167 209.274 176.162L209.418 176.535ZM206.442 176.972C205.912 175.604 205.279 174.706 204.541 174.276C203.754 173.723 203.036 173.715 202.166 174.052C201.296 174.389 200.694 175.05 200.562 175.817C200.353 176.755 200.489 177.846 200.971 179.09L201.211 179.711C201.452 180.333 201.817 180.907 202.134 181.356C202.451 181.805 202.768 182.254 203.113 182.407C203.506 182.684 203.851 182.836 204.272 182.816C204.693 182.796 205.114 182.776 205.487 182.631C206.358 182.294 206.959 181.633 207.092 180.866C207.3 179.928 207.164 178.837 206.634 177.469L206.442 176.972Z" fill="#E8E7E7"/>
</g>
<g opacity="0.45" clip-path="url(#clip3_180_137)">
<path d="M651.732 217.388L661.492 224.115L662.283 228.416L668.425 219.505C669.069 218.572 668.831 217.281 667.898 216.638L657.289 209.326C656.356 208.682 655.065 208.92 654.422 209.853L651.205 214.521C650.561 215.455 650.799 216.745 651.732 217.388Z" fill="#454242"/>
<path d="M659.694 218.369L658.166 217.316L657.255 218.003L656.321 217.359L660.816 214.198L661.622 214.754L660.268 220.079L659.334 219.436L659.694 218.369ZM658.846 216.784L659.907 217.515L660.509 215.551L658.846 216.784Z" fill="#161313"/>
<path d="M663.758 216.288L653.998 209.561L649.697 210.352L656.424 200.592C657.067 199.659 658.358 199.421 659.291 200.065L669.9 207.377C670.833 208.02 671.071 209.31 670.427 210.244L666.625 215.76C665.981 216.694 664.691 216.931 663.758 216.288Z" fill="#949292"/>
<path d="M663.692 209.482C663.399 209.906 663.081 210.187 662.749 210.397C662.416 210.606 662.071 210.744 661.7 210.738L662.041 211.787L661.138 211.916L660.702 210.551C660.617 210.492 660.46 210.447 660.333 210.359C660.079 210.184 659.853 209.966 659.657 209.706C659.503 209.474 659.408 209.159 659.355 208.872C659.303 208.585 659.351 208.243 659.442 207.93C659.532 207.617 659.694 207.29 659.928 206.951L660.045 206.781C660.279 206.442 660.527 206.174 660.787 205.978C661.047 205.782 661.35 205.615 661.637 205.562C661.924 205.509 662.21 205.456 662.523 205.547C662.794 205.608 663.078 205.741 663.375 205.946C663.63 206.122 663.855 206.34 664.051 206.6C664.205 206.831 664.3 207.147 664.353 207.434C664.405 207.721 664.357 208.063 664.267 208.376C664.176 208.689 664.014 209.015 663.78 209.355L663.692 209.482ZM662.905 208.627C663.226 208.16 663.375 207.762 663.352 207.433C663.358 207.061 663.204 206.83 662.907 206.625C662.61 206.42 662.268 206.372 661.994 206.497C661.649 206.634 661.33 206.915 661.037 207.34L660.891 207.552C660.745 207.764 660.641 208.005 660.567 208.204C660.492 208.403 660.418 208.602 660.444 208.746C660.441 208.931 660.467 209.075 660.565 209.205C660.663 209.335 660.762 209.465 660.889 209.553C661.186 209.758 661.528 209.806 661.802 209.682C662.147 209.544 662.466 209.263 662.788 208.796L662.905 208.627Z" fill="#E8E7E7"/>
</g>
<g opacity="0.45" clip-path="url(#clip4_180_137)">
<path d="M367.711 67.0529L379.547 65.3328L383.084 67.9718L381.513 57.1647C381.349 56.0326 380.288 55.2409 379.156 55.4054L366.29 57.2751C365.158 57.4396 364.366 58.5006 364.531 59.6327L365.353 65.2936C365.518 66.4257 366.579 67.2175 367.711 67.0529Z" fill="#454242"/>
<path d="M374.274 62.3156L372.421 62.5848L372.218 63.7179L371.086 63.8824L372.242 58.4594L373.22 58.3173L375.872 63.1869L374.74 63.3514L374.274 62.3156ZM372.559 61.724L373.845 61.537L372.944 59.6712L372.559 61.724Z" fill="#161313"/>
<path d="M375.852 57.9874L364.016 59.7075L361.377 63.244L359.657 51.4076C359.492 50.2755 360.284 49.2145 361.416 49.05L374.281 47.1803C375.414 47.0158 376.475 47.8075 376.639 48.9397L377.611 55.6298C377.776 56.7619 376.984 57.8229 375.852 57.9874Z" fill="#949292"/>
<path d="M371.133 52.9979C371.208 53.5125 371.165 53.9391 371.063 54.3218C370.961 54.7045 370.8 55.0432 370.521 55.2939L371.493 55.8358L370.914 56.5505L369.654 55.8402C369.551 55.8552 369.405 55.9291 369.25 55.9515C368.941 55.9964 368.625 55.9898 368.301 55.9317C368.029 55.8662 367.742 55.6977 367.506 55.5218C367.27 55.3459 367.071 55.0595 366.923 54.7657C366.776 54.4719 366.672 54.1191 366.612 53.7074L366.582 53.5016C366.522 53.0899 366.521 52.7222 366.579 52.3984C366.637 52.0747 366.747 51.7435 366.923 51.5077C367.099 51.272 367.275 51.0362 367.568 50.8884C367.811 50.7481 368.112 50.6518 368.472 50.5994C368.781 50.5545 369.097 50.5611 369.421 50.6192C369.693 50.6847 369.981 50.8532 370.216 51.0291C370.452 51.205 370.651 51.4914 370.799 51.7852C370.947 52.079 371.051 52.4318 371.111 52.8435L371.133 52.9979ZM369.964 52.9051C369.881 52.339 369.718 51.9422 369.475 51.7148C369.225 51.436 368.952 51.3705 368.592 51.4228C368.232 51.4752 367.945 51.6744 367.828 51.9542C367.667 52.2929 367.624 52.7195 367.699 53.2341L367.737 53.4914C367.774 53.7488 367.863 53.9986 367.944 54.197C368.026 54.3953 368.107 54.5937 368.225 54.6817C368.35 54.8211 368.468 54.9091 368.63 54.9381C368.792 54.9671 368.954 54.9961 369.108 54.9737C369.468 54.9214 369.755 54.7221 369.872 54.4424C370.033 54.1037 370.076 53.677 369.993 53.1109L369.964 52.9051Z" fill="#E8E7E7"/>
</g>
<g opacity="0.45">
<path d="M533.567 200.284C534.542 199.512 535.67 199.117 536.802 198.913C538.111 198.677 539.709 198.832 541.119 199.617C542.595 200.439 543.761 201.898 544.142 204.007C544.579 206.431 543.104 208.057 542.272 208.973C542.207 209.044 542.147 209.111 542.091 209.174C541.184 210.194 540.857 210.711 541.023 211.633C541.209 212.663 540.525 213.649 539.495 213.835C538.464 214.021 537.478 213.337 537.292 212.306C536.783 209.486 538.295 207.739 539.256 206.656C540.352 205.422 540.498 205.165 540.411 204.681C540.233 203.693 539.762 203.201 539.275 202.93C538.722 202.622 538.031 202.544 537.475 202.644C536.741 202.777 536.258 202.989 535.919 203.258C535.596 203.513 535.279 203.915 535.036 204.652C534.709 205.647 533.637 206.187 532.643 205.86C531.648 205.532 531.108 204.46 531.435 203.466C531.873 202.138 532.574 201.069 533.567 200.284Z" fill="#E8E7E7"/>
<path d="M540.841 221.297C542.215 221.049 543.128 219.735 542.88 218.361C542.632 216.987 541.317 216.074 539.944 216.322C538.57 216.57 537.657 217.885 537.905 219.259C538.153 220.633 539.468 221.545 540.841 221.297Z" fill="#E8E7E7"/>
<path d="M535.455 191.449C525.152 193.308 518.307 203.168 520.166 213.471C520.675 216.288 521.784 218.852 523.338 221.048C523.154 223.645 522.948 226.54 522.812 228.441C522.643 230.817 525.061 232.514 527.237 231.557C529.022 230.772 531.766 229.566 534.211 228.496C536.746 229.133 539.454 229.252 542.188 228.759C552.49 226.9 559.335 217.04 557.476 206.738C555.617 196.435 545.758 189.59 535.455 191.449ZM523.897 212.797C522.41 204.555 527.886 196.667 536.128 195.18C544.37 193.693 552.258 199.169 553.745 207.411C555.233 215.653 549.757 223.541 541.514 225.028C539.125 225.459 536.77 225.306 534.593 224.672L533.933 224.479L533.303 224.755C531.107 225.715 528.57 226.83 526.668 227.666C526.813 225.638 527.004 222.953 527.169 220.62L527.22 219.902L526.782 219.331C525.358 217.477 524.342 215.263 523.897 212.797Z" fill="#E8E7E7"/>
<path d="M555.972 233.977C551.073 234.861 546.275 233.777 542.389 231.29C542.472 231.276 542.555 231.262 542.637 231.247C544.423 230.924 546.117 230.39 547.698 229.674C550.064 230.485 552.663 230.722 555.298 230.246C557.688 229.815 559.84 228.848 561.659 227.492L562.21 227.082L562.896 227.12C565.287 227.252 567.984 227.346 569.983 227.406C569.211 225.618 568.166 223.226 567.197 221.102L566.899 220.447L567.11 219.759C567.796 217.524 567.974 215.095 567.529 212.629C566.58 207.369 563.024 203.235 558.433 201.319C557.665 199.601 556.683 198.014 555.525 196.587C563.288 197.796 569.787 203.79 571.26 211.956C571.769 214.774 571.626 217.564 570.936 220.166C572.018 222.56 573.146 225.16 573.866 226.837C574.771 228.946 573.192 231.289 570.888 231.225C569.012 231.174 566.06 231.08 563.355 230.941C561.202 232.424 558.707 233.483 555.972 233.977Z" fill="#E8E7E7"/>
</g>
<g opacity="0.45">
<path d="M581.385 71.6845C581.583 71.5714 581.799 71.5308 582.009 71.525C582.254 71.5182 582.539 71.5906 582.773 71.7718C583.018 71.9616 583.19 72.2583 583.2 72.6515C583.213 73.1033 582.9 73.3574 582.724 73.5006C582.711 73.5117 582.698 73.5222 582.686 73.5321C582.493 73.6922 582.42 73.7769 582.424 73.9487C582.43 74.1407 582.278 74.3006 582.086 74.3059C581.894 74.3113 581.734 74.1599 581.729 73.9679C581.715 73.4422 582.037 73.167 582.241 72.9972C582.474 72.8036 582.508 72.761 582.505 72.6707C582.5 72.4867 582.428 72.3844 582.347 72.3218C582.256 72.2508 582.132 72.2175 582.029 72.2203C581.892 72.2241 581.798 72.2494 581.73 72.2887C581.664 72.3261 581.595 72.3904 581.531 72.5174C581.444 72.6887 581.235 72.7572 581.064 72.6703C580.892 72.5835 580.824 72.3742 580.911 72.2029C581.027 71.974 581.183 71.7995 581.385 71.6845Z" fill="#E8E7E7"/>
<path d="M582.125 75.6966C582.381 75.6896 582.583 75.4763 582.576 75.2203C582.569 74.9642 582.355 74.7624 582.099 74.7695C581.843 74.7766 581.641 74.9898 581.649 75.2459C581.656 75.5019 581.869 75.7037 582.125 75.6966Z" fill="#E8E7E7"/>
<path d="M581.972 70.134C580.052 70.1871 578.538 71.7867 578.591 73.7067C578.606 74.2319 578.736 74.7274 578.958 75.1688C578.853 75.6346 578.736 76.1541 578.659 76.4951C578.562 76.9214 578.954 77.296 579.375 77.1824C579.721 77.0892 580.252 76.9461 580.725 76.8195C581.167 77.0049 581.655 77.1013 582.164 77.0872C584.084 77.0341 585.598 75.4346 585.545 73.5145C585.492 71.5944 583.892 70.0809 581.972 70.134ZM579.287 73.6875C579.244 72.1515 580.455 70.8718 581.991 70.8293C583.527 70.7869 584.807 71.9977 584.849 73.5337C584.892 75.0698 583.681 76.3494 582.145 76.3919C581.7 76.4042 581.277 76.3114 580.899 76.1364L580.785 76.0833L580.663 76.1159C580.238 76.2295 579.747 76.3616 579.379 76.4608C579.462 76.0971 579.57 75.6153 579.665 75.1967L579.694 75.0679L579.63 74.9523C579.423 74.5766 579.299 74.1471 579.287 73.6875Z" fill="#E8E7E7"/>
<path d="M584.52 78.4138C583.607 78.4391 582.766 78.1102 582.13 77.5518C582.145 77.5516 582.161 77.5512 582.176 77.5508C582.509 77.5416 582.831 77.4914 583.138 77.4051C583.544 77.6175 584.009 77.7321 584.5 77.7185C584.946 77.7062 585.363 77.5901 585.73 77.3945L585.841 77.3352L585.965 77.361C586.395 77.4509 586.881 77.5425 587.242 77.6084C587.152 77.2628 587.028 76.8002 586.911 76.388L586.875 76.2611L586.932 76.1421C587.118 75.7556 587.218 75.3199 587.205 74.8603C587.178 73.88 586.647 73.0323 585.867 72.5581C585.775 72.2251 585.641 71.9102 585.47 71.6194C586.845 72.0529 587.858 73.3193 587.9 74.8411C587.915 75.3664 587.812 75.8685 587.615 76.3214C587.745 76.7854 587.878 77.2883 587.962 77.6122C588.068 78.0198 587.717 78.4011 587.301 78.3261C586.962 78.265 586.43 78.1666 585.943 78.0667C585.511 78.2764 585.029 78.3997 584.52 78.4138Z" fill="#E8E7E7"/>
</g>
<g opacity="0.45" clip-path="url(#clip5_180_137)">
<path d="M416.897 251.607L422.486 260.299C423.447 261.794 425.28 262.475 426.985 261.971L436.894 259.04" stroke="#E8E7E7" stroke-width="1.5" stroke-linecap="round" stroke-linejoin="round"/>
<path d="M436.574 256.076L419.077 249.572C417.696 249.059 416.161 249.762 415.648 251.142L411.002 263.64C410.489 265.02 411.192 266.555 412.573 267.069L430.069 273.573C431.45 274.086 432.985 273.383 433.498 272.002L438.144 259.505C438.657 258.124 437.954 256.589 436.574 256.076Z" stroke="#E8E7E7" stroke-width="1.5" stroke-linecap="round"/>
</g>
<g opacity="0.45" clip-path="url(#clip6_180_137)">
<path d="M466.409 14.7287L472.213 17.7201C473.212 18.2348 474.43 18.0287 475.204 17.2141L479.701 12.4797" stroke="#E8E7E7" stroke-width="1.5" stroke-linecap="round" stroke-linejoin="round"/>
<path d="M478.59 10.9588L466.959 12.9266C466.042 13.0818 465.424 13.9516 465.579 14.8692L466.985 23.1767C467.14 24.0943 468.01 24.7123 468.927 24.5571L480.558 22.5893C481.475 22.434 482.093 21.5643 481.938 20.6466L480.532 12.3391C480.377 11.4215 479.507 10.8035 478.59 10.9588Z" stroke="#E8E7E7" stroke-width="1.5" stroke-linecap="round"/>
</g>
<g opacity="0.45" clip-path="url(#clip7_180_137)">
<path d="M691.845 116.036L697.075 118.572C697.975 119.008 699.055 118.798 699.725 118.057L703.624 113.745" stroke="#E8E7E7" stroke-width="1.5" stroke-linecap="round" stroke-linejoin="round"/>
<path d="M702.602 112.416L692.295 114.421C691.481 114.579 690.95 115.366 691.109 116.18L692.54 123.542C692.699 124.355 693.486 124.886 694.299 124.728L704.606 122.723C705.419 122.565 705.95 121.778 705.792 120.964L704.36 113.602C704.202 112.789 703.415 112.258 702.602 112.416Z" stroke="#E8E7E7" stroke-width="1.5" stroke-linecap="round"/>
</g>
<g opacity="0.45" clip-path="url(#clip8_180_137)">
<path d="M733.857 249.695L736.216 252.769C736.621 253.298 737.328 253.496 737.949 253.255L741.561 251.852" stroke="#E8E7E7" stroke-linecap="round" stroke-linejoin="round"/>
<path d="M741.349 250.754L734.608 248.866C734.077 248.718 733.525 249.028 733.376 249.56L732.028 254.375C731.879 254.906 732.189 255.458 732.721 255.607L739.462 257.495C739.994 257.644 740.546 257.333 740.694 256.801L742.043 251.986C742.191 251.455 741.881 250.903 741.349 250.754Z" stroke="#E8E7E7" stroke-linecap="round"/>
</g>
<g opacity="0.45" clip-path="url(#clip9_180_137)">
<path d="M86.1143 43.2745L91.2011 45.37C92.0763 45.7305 93.0844 45.4702 93.6756 44.731L97.1117 40.4343" stroke="#E8E7E7" stroke-linecap="round" stroke-linejoin="round"/>
<path d="M96.0687 39.2372L86.446 41.7222C85.6868 41.9183 85.2302 42.6927 85.4263 43.4519L87.2014 50.3253C87.3974 51.0845 88.1718 51.541 88.931 51.345L98.5538 48.8599C99.313 48.6638 99.7695 47.8894 99.5734 47.1302L97.7984 40.2568C97.6023 39.4976 96.8279 39.0411 96.0687 39.2372Z" stroke="#E8E7E7" stroke-linecap="round"/>
</g>
<g opacity="0.45" clip-path="url(#clip10_180_137)">
<path d="M172.708 264.48C172.858 264.308 173.048 264.199 173.245 264.124C173.474 264.038 173.767 264.012 174.048 264.107C174.342 264.205 174.601 264.43 174.74 264.797C174.9 265.22 174.688 265.563 174.569 265.756C174.56 265.771 174.551 265.785 174.543 265.798C174.414 266.013 174.372 266.117 174.433 266.277C174.501 266.457 174.41 266.658 174.231 266.726C174.051 266.794 173.85 266.703 173.782 266.524C173.596 266.032 173.81 265.666 173.947 265.439C174.104 265.18 174.122 265.128 174.09 265.044C174.024 264.872 173.923 264.799 173.826 264.766C173.716 264.729 173.589 264.738 173.492 264.775C173.364 264.823 173.284 264.878 173.232 264.938C173.182 264.994 173.138 265.078 173.119 265.219C173.093 265.409 172.918 265.542 172.728 265.517C172.537 265.491 172.404 265.316 172.43 265.125C172.464 264.871 172.555 264.655 172.708 264.48Z" fill="#E8E7E7"/>
<path d="M174.723 268.027C174.963 267.936 175.083 267.668 174.993 267.429C174.902 267.189 174.634 267.069 174.395 267.16C174.155 267.25 174.034 267.518 174.125 267.757C174.216 267.997 174.484 268.118 174.723 268.027Z" fill="#E8E7E7"/>
<path d="M172.752 262.823C170.956 263.503 170.051 265.511 170.731 267.307C170.918 267.799 171.203 268.224 171.557 268.568C171.611 269.043 171.671 269.572 171.71 269.919C171.759 270.354 172.252 270.579 172.613 270.333C172.908 270.132 173.363 269.822 173.768 269.547C174.247 269.577 174.739 269.508 175.216 269.328C177.012 268.647 177.917 266.64 177.236 264.843C176.556 263.047 174.548 262.143 172.752 262.823ZM171.382 267.061C170.838 265.624 171.561 264.018 172.998 263.473C174.435 262.929 176.041 263.653 176.586 265.09C177.13 266.527 176.406 268.133 174.969 268.677C174.553 268.835 174.123 268.886 173.709 268.845L173.583 268.832L173.479 268.903C173.115 269.15 172.695 269.436 172.38 269.65C172.338 269.28 172.283 268.789 172.234 268.363L172.219 268.231L172.121 268.143C171.802 267.856 171.545 267.491 171.382 267.061Z" fill="#E8E7E7"/>
<path d="M177.878 269.807C177.024 270.131 176.122 270.096 175.338 269.778C175.352 269.772 175.366 269.767 175.381 269.761C175.692 269.644 175.98 269.49 176.241 269.308C176.695 269.375 177.172 269.331 177.631 269.157C178.048 268.999 178.404 268.753 178.686 268.447L178.772 268.355L178.897 268.339C179.333 268.282 179.823 268.209 180.185 268.153C179.986 267.856 179.717 267.46 179.471 267.109L179.396 267.001L179.411 266.87C179.46 266.443 179.41 265.999 179.248 265.569C178.9 264.652 178.12 264.026 177.228 263.834C177.032 263.55 176.802 263.296 176.545 263.078C177.986 263.036 179.359 263.899 179.898 265.323C180.084 265.814 180.152 266.322 180.115 266.815C180.39 267.21 180.68 267.642 180.866 267.92C181.1 268.27 180.894 268.746 180.476 268.811C180.136 268.865 179.601 268.947 179.108 269.012C178.769 269.352 178.355 269.627 177.878 269.807Z" fill="#E8E7E7"/>
</g>
<g opacity="0.45" clip-path="url(#clip11_180_137)">
<path d="M260.784 20.3031C261.012 20.2808 261.225 20.3317 261.42 20.4124C261.645 20.5059 261.876 20.6885 262.016 20.9495C262.162 21.2227 262.198 21.5635 262.047 21.9269C261.874 22.3444 261.485 22.4488 261.266 22.5077C261.249 22.5123 261.233 22.5166 261.218 22.5208C260.977 22.5883 260.875 22.6357 260.809 22.7944C260.736 22.9718 260.532 23.0561 260.355 22.9826C260.177 22.909 260.093 22.7056 260.167 22.5281C260.368 22.0423 260.775 21.9226 261.03 21.851C261.322 21.7693 261.37 21.7441 261.405 21.6606C261.475 21.4905 261.451 21.3679 261.403 21.2778C261.348 21.1754 261.249 21.0947 261.153 21.055C261.027 21.0027 260.931 20.9876 260.852 20.9953C260.777 21.0027 260.688 21.0334 260.578 21.1231C260.429 21.244 260.21 21.2211 260.089 21.0719C259.968 20.9227 259.991 20.7037 260.14 20.5827C260.339 20.4212 260.553 20.3257 260.784 20.3031Z" fill="#E8E7E7"/>
<path d="M259.822 24.2679C260.059 24.3659 260.33 24.2536 260.428 24.017C260.526 23.7803 260.414 23.509 260.177 23.411C259.941 23.313 259.67 23.4253 259.572 23.6619C259.473 23.8986 259.586 24.1698 259.822 24.2679Z" fill="#E8E7E7"/>
<path d="M261.952 19.1269C260.178 18.3917 258.143 19.2342 257.408 21.0087C257.207 21.4941 257.124 21.9997 257.146 22.493C256.86 22.8754 256.541 23.3018 256.331 23.5817C256.069 23.9316 256.274 24.4335 256.705 24.5016C257.058 24.5575 257.601 24.6436 258.085 24.7211C258.413 25.0709 258.819 25.3579 259.29 25.553C261.064 26.2883 263.099 25.4457 263.834 23.6712C264.569 21.8967 263.727 19.8621 261.952 19.1269ZM258.051 21.275C258.639 19.8554 260.266 19.1814 261.686 19.7695C263.106 20.3577 263.78 21.9854 263.192 23.405C262.603 24.8246 260.976 25.4986 259.556 24.9104C259.145 24.7399 258.796 24.4826 258.523 24.1687L258.44 24.0736L258.316 24.0536C257.882 23.9839 257.38 23.9042 257.003 23.8446C257.227 23.5461 257.523 23.1506 257.78 22.8069L257.859 22.7012L257.848 22.5696C257.812 22.1421 257.875 21.6997 258.051 21.275Z" fill="#E8E7E7"/>
<path d="M260.9 27.7258C260.056 27.3763 259.423 26.733 259.07 25.9636C259.084 25.9696 259.099 25.9756 259.113 25.9815C259.42 26.109 259.735 26.1945 260.05 26.2409C260.334 26.6008 260.712 26.8951 261.166 27.0832C261.578 27.2537 262.006 27.318 262.421 27.2893L262.547 27.2806L262.649 27.3545C263.005 27.6121 263.412 27.8943 263.714 28.1018C263.772 27.7492 263.848 27.2765 263.91 26.8524L263.929 26.7218L264.029 26.6366C264.357 26.3597 264.626 26.0025 264.802 25.5777C265.177 24.6717 265.038 23.6811 264.52 22.9299C264.572 22.5884 264.578 22.2461 264.541 21.911C265.618 22.8678 266.027 24.4375 265.444 25.844C265.243 26.3294 264.944 26.7458 264.58 27.079C264.509 27.5557 264.425 28.069 264.37 28.3991C264.3 28.8146 263.824 29.0194 263.475 28.7811C263.19 28.5869 262.744 28.2796 262.34 27.9897C261.861 28.005 261.371 27.921 260.9 27.7258Z" fill="#E8E7E7"/>
</g>
<g opacity="0.45">
<path d="M13.4493 47.2163C14.0452 46.8792 14.6923 46.7597 15.3247 46.7443C16.0569 46.7266 16.913 46.9465 17.6134 47.4926C18.3467 48.0644 18.8573 48.9565 18.8858 50.136C18.9186 51.4915 17.9786 52.2505 17.4487 52.6785C17.4074 52.7117 17.3688 52.743 17.3332 52.7724C16.7539 53.2508 16.5321 53.5043 16.5446 54.0196C16.5585 54.5956 16.1029 55.0739 15.5268 55.0879C14.9507 55.1018 14.4724 54.6461 14.4585 54.0701C14.4203 52.493 15.3901 51.6706 16.0045 51.1633C16.7048 50.585 16.8062 50.4575 16.7997 50.1866C16.7863 49.6344 16.5721 49.3268 16.3302 49.1383C16.0556 48.9241 15.6863 48.8229 15.3753 48.8305C14.9647 48.8404 14.6841 48.9152 14.4769 49.0325C14.28 49.1439 14.0734 49.3362 13.879 49.7165C13.6167 50.2295 12.9881 50.4328 12.475 50.1705C11.9619 49.9082 11.7587 49.2797 12.021 48.7666C12.3713 48.0813 12.8432 47.5592 13.4493 47.2163Z" fill="#E8E7E7"/>
<path d="M15.6272 59.2603C16.3953 59.2417 17.0029 58.604 16.9843 57.8359C16.9657 57.0676 16.328 56.4601 15.5598 56.4787C14.7917 56.4973 14.184 57.135 14.2026 57.9032C14.2212 58.6714 14.859 59.2789 15.6272 59.2603Z" fill="#E8E7E7"/>
<path d="M15.2234 42.571C9.46266 42.7105 4.90574 47.4936 5.04523 53.2543C5.08338 54.8299 5.46963 56.3178 6.12933 57.6441C5.80963 59.0406 5.45239 60.5978 5.21777 61.6201C4.92443 62.8981 6.09622 64.0258 7.36044 63.6894C8.39776 63.4133 9.99202 62.9896 11.4128 62.6144C12.7376 63.1752 14.1998 63.4695 15.7285 63.4325C21.4893 63.293 26.0462 58.5099 25.9067 52.7492C25.7672 46.9884 20.9841 42.4315 15.2234 42.571ZM7.13138 53.2038C7.01978 48.5952 10.6653 44.7688 15.2739 44.6572C19.8825 44.5456 23.709 48.1911 23.8206 52.7997C23.9322 57.4083 20.2866 61.2347 15.678 61.3463C14.3419 61.3787 13.0743 61.096 11.9437 60.5669L11.6011 60.4065L11.2353 60.503C9.9594 60.8395 8.48536 61.2309 7.38066 61.5247C7.63083 60.4345 7.96208 58.9899 8.2492 57.7351L8.33752 57.3491L8.14748 57.0016C7.5298 55.8724 7.16476 54.5826 7.13138 53.2038Z" fill="#E8E7E7"/>
<path d="M22.784 67.4365C20.045 67.5028 17.5271 66.5075 15.6241 64.8259C15.6703 64.8253 15.7166 64.8245 15.7628 64.8234C16.7614 64.7992 17.7279 64.6518 18.6485 64.3963C19.8662 65.0375 21.2598 65.386 22.7335 65.3504C24.0696 65.318 25.322 64.9742 26.4256 64.391L26.7602 64.2142L27.1302 64.2929C28.4191 64.567 29.8782 64.8467 30.9601 65.0483C30.6916 64.0105 30.3258 62.6213 29.9787 61.3837L29.8719 61.0025L30.0449 60.6462C30.6072 59.4885 30.9094 58.1825 30.876 56.8037C30.8048 53.8626 29.2207 51.3138 26.8858 49.8833C26.6133 48.8835 26.2134 47.9374 25.7048 47.0632C29.8241 48.3778 32.8516 52.1874 32.9621 56.7532C33.0003 58.3291 32.6864 59.8343 32.0913 61.1912C32.4771 62.5845 32.8704 64.0945 33.12 65.0671C33.4341 66.2911 32.3771 67.4313 31.1296 67.202C30.1133 67.0151 28.5161 66.7145 27.0562 66.4099C25.7598 67.0345 24.3131 67.3995 22.784 67.4365Z" fill="#E8E7E7"/>
</g>
<g opacity="0.45" clip-path="url(#clip12_180_137)">
<path d="M69.8405 124.495C68.9776 123.639 67.8632 123.05 66.621 122.759C65.38 122.471 63.9979 122.491 62.6267 122.923C60.9352 123.451 59.6695 124.333 58.8016 125.277C57.9287 126.219 57.6926 127.071 57.6926 127.071C57.5626 127.283 57.5328 127.54 57.6114 127.775C57.6906 128.01 57.8694 128.198 58.1002 128.287L59.9442 129.003C60.32 129.149 60.7468 129.005 60.9571 128.661C60.9571 128.661 61.0351 128.277 61.5001 127.775C61.9689 127.273 62.6266 126.782 63.7306 126.43C64.6938 126.125 65.6475 126.22 66.3757 126.531C66.7373 126.685 67.036 126.891 67.2449 127.099C67.4556 127.309 67.5728 127.514 67.6247 127.681C67.7995 128.246 67.806 128.65 67.7467 129.014C67.6999 129.287 67.608 129.545 67.4687 129.811C67.2613 130.209 66.9389 130.617 66.5593 131.019C66.1803 131.425 65.7556 131.81 65.3407 132.244C64.8676 132.742 64.4048 133.388 64.172 134.213C64.0551 134.622 64.0022 135.064 64.0197 135.506C64.0358 135.95 64.1199 136.394 64.2574 136.831C64.4041 137.297 64.5245 137.68 64.5245 137.68C64.6628 138.119 65.1311 138.363 65.5704 138.225L67.487 137.622C67.9264 137.484 68.1705 137.015 68.0322 136.576C68.0322 136.576 67.9118 136.193 67.7651 135.727C67.7121 135.559 67.6971 135.444 67.6938 135.37C67.6931 135.257 67.7028 135.225 67.7349 135.146C67.769 135.07 67.8471 134.946 68.0097 134.775C68.2465 134.523 68.64 134.159 69.0745 133.711C69.7233 133.036 70.493 132.154 70.9945 130.942C71.2434 130.337 71.4153 129.649 71.45 128.908C71.4869 128.166 71.3846 127.377 71.1321 126.577C70.8761 125.766 70.4139 125.066 69.8405 124.495Z" fill="#E8E7E7"/>
<path d="M67.1255 139.816C65.9307 140.192 65.2669 141.466 65.6429 142.661C66.0187 143.855 67.2924 144.519 68.4872 144.143C69.6814 143.767 70.3449 142.493 69.9691 141.299C69.5931 140.104 68.3197 139.44 67.1255 139.816Z" fill="#E8E7E7"/>
</g>
</g>
<defs>
<clipPath id="clip0_180_137">
<rect width="24" height="24" fill="white" transform="translate(34.4824 218.322) rotate(14.8738)"/>
</clipPath>
<clipPath id="clip1_180_137">
<rect width="30.4101" height="30.4101" fill="white" transform="translate(716.702 8.5482) rotate(15.5536)"/>
</clipPath>
<clipPath id="clip2_180_137">
<rect width="64" height="64" fill="white" transform="translate(171 171.104) rotate(-21.1612)"/>
</clipPath>
<clipPath id="clip3_180_137">
<rect width="24.7379" height="24.7379" fill="white" transform="translate(657.066 196.028) rotate(34.5767)"/>
</clipPath>
<clipPath id="clip4_180_137">
<rect width="24.9614" height="24.9614" fill="white" transform="translate(357 47.5898) rotate(-8.26862)"/>
</clipPath>
<clipPath id="clip5_180_137">
<rect width="32" height="32" fill="white" transform="translate(415.15 241) rotate(20.3918)"/>
</clipPath>
<clipPath id="clip6_180_137">
<rect width="20.2214" height="20.2214" fill="white" transform="translate(462.103 9.47559) rotate(-9.6031)"/>
</clipPath>
<clipPath id="clip7_180_137">
<rect width="18" height="18" fill="white" transform="translate(687.897 111.456) rotate(-11.0057)"/>
</clipPath>
<clipPath id="clip8_180_137">
<rect width="12" height="12" fill="white" transform="translate(732.875 245.785) rotate(15.6419)"/>
</clipPath>
<clipPath id="clip9_180_137">
<rect width="17.0373" height="17.0373" fill="white" transform="translate(82.1221 39.1731) rotate(-14.4803)"/>
</clipPath>
<clipPath id="clip10_180_137">
<rect width="11.1294" height="11.1294" fill="white" transform="translate(168.14 263.083) rotate(-20.7476)"/>
</clipPath>
<clipPath id="clip11_180_137">
<rect width="11.1294" height="11.1294" fill="white" transform="translate(258.415 16.1554) rotate(22.5052)"/>
</clipPath>
<clipPath id="clip12_180_137">
<rect width="22" height="22" fill="white" transform="translate(52.5039 126.109) rotate(-17.4709)"/>
</clipPath>
</defs>
</svg>
